# xmcd
#
# Track frame offsets: 
#        150
#        20032
#        41632
#        65535
#        86472
#        105710
#        122060
#        146742
#        169655
#        183712
#        199540
#        215020
#        235770
#        257342
#        275847
#
# Disc length: 3957 seconds
#
# Revision: 3
# Processed by: cddbd v1.5.1PL0 Copyright (c) Steve Scherf et al.
# Submitted via: ExactAudioCopy v0.95a5
#
DISCID=de0f730f
DTITLE=Various Artist - Organic Soul
DYEAR=2001
DGENRE=Soul
TTITLE0=N'Dambi - What's Wrong With You
TTITLE1=N'Dambi - Soul From The Abyss
TTITLE2=N'Dambi - See Ya In My Dreams
TTITLE3=Ledisi - You Are My Friend
TTITLE4=Ledisi - Good Lovin'
TTITLE5=Ledisi - I've Got It
TTITLE6=Laurena - Keep Your Head Up
TTITLE7=Laurena - Just A Little
TTITLE8=Laurena - Groovin'
TTITLE9=Karen Bernod - The Pocket
TTITLE10=Karen Bernod - Do Ya Wanna Do
TTITLE11=Karen Bernod - Spirit
TTITLE12=Ian Martin - Treat You Right
TTITLE13=Ian Martin - Rise
TTITLE14=Ian Martin - Thank You
EXTD=ID3G: 42
EXTT0=
EXTT1=
EXTT2=
EXTT3=
EXTT4=
EXTT5=
EXTT6=
EXTT7=
EXTT8=
EXTT9=
EXTT10=
EXTT11=
EXTT12=
EXTT13=
EXTT14=
PLAYORDER=
